<svg width="14" height="14" viewBox="0 0 14 14" fill="none" xmlns="http://www.w3.org/2000/svg">
<path d="M10.6 13.6667C7.87819 13.6631 5.26887 12.5803 3.34426 10.6557C1.41965 8.73112 0.336856 6.1218 0.333328 3.39999C0.333328 2.58666 0.656423 1.80665 1.23153 1.23153C1.80665 0.656423 2.58666 0.333328 3.39999 0.333328C3.57222 0.332016 3.74416 0.347647 3.91333 0.379995C4.07687 0.404195 4.23764 0.444388 4.39333 0.499995C4.50283 0.538414 4.6004 0.60475 4.6764 0.692443C4.7524 0.780136 4.8042 0.886147 4.82666 0.999995L5.74 4.99999C5.76461 5.10857 5.76165 5.22158 5.73137 5.32872C5.70109 5.43585 5.64447 5.5337 5.56666 5.61333C5.48 5.70666 5.47333 5.71333 4.65333 6.13999C5.30999 7.58057 6.46213 8.73743 7.9 9.39999C8.33333 8.57333 8.33999 8.56666 8.43333 8.47999C8.51296 8.40219 8.6108 8.34556 8.71794 8.31528C8.82508 8.28501 8.93809 8.28204 9.04666 8.30666L13.0467 9.21999C13.1569 9.24556 13.2587 9.29876 13.3427 9.37457C13.4267 9.45037 13.49 9.5463 13.5267 9.65333C13.5829 9.81157 13.6253 9.9744 13.6533 10.14C13.6802 10.3075 13.6935 10.477 13.6933 10.6467C13.681 11.4565 13.3489 12.2286 12.7693 12.7944C12.1898 13.3602 11.4099 13.6738 10.6 13.6667ZM3.39999 1.66666C2.94083 1.66842 2.50097 1.8516 2.17628 2.17628C1.8516 2.50097 1.66842 2.94083 1.66666 3.39999C1.66843 5.76872 2.61018 8.03992 4.28512 9.71486C5.96007 11.3898 8.23127 12.3316 10.6 12.3333C11.0592 12.3316 11.499 12.1484 11.8237 11.8237C12.1484 11.499 12.3316 11.0592 12.3333 10.6V10.38L9.24 9.66666L9.04666 10.0333C8.74666 10.6133 8.52666 11.0333 7.96666 10.8067C6.86192 10.4112 5.85913 9.77468 5.03115 8.94325C4.20318 8.11181 3.57081 7.10638 3.18 5.99999C2.94 5.47999 3.39333 5.23999 3.96666 4.93999L4.33333 4.75999L3.61999 1.66666H3.39999Z" fill="#969696"/>
</svg>
